<?xml version="1.0" ?><svg xmlns="http://www.w3.org/2000/svg" xmlns:xlink="http://www.w3.org/1999/xlink" version="1.1" id="Layer_1" viewBox="0 0 1500 1500" style="enable-background:new 0 0 1500 1500;" xml:space="preserve"><style type="text/css">
	.st0{fill:#FFB53D;}
	.st1{fill:#EF4743;}
	.st2{fill:#417FF0;}
	.st3{fill:none;stroke:#C1C2C6;stroke-width:11;stroke-linecap:round;stroke-linejoin:round;stroke-miterlimit:10;}
	.st4{fill:#C1C2C6;}
	.st5{fill:#221F44;}
	.st6{fill:none;stroke:#69A6FF;stroke-width:8.9722;stroke-miterlimit:10;}
	.st7{fill:none;stroke:#FFFFFF;stroke-width:9.6672;stroke-miterlimit:10;}
	.st8{fill:none;stroke:#221F44;stroke-width:9.8518;stroke-miterlimit:10;}
	.st9{fill:#FFFFFF;}
	.st10{fill:none;stroke:#FFFFFF;stroke-width:8;stroke-miterlimit:10;}
</style><g><path class="st0" d="M1228.33,590.61V444.97c-80.44,0-145.64,65.21-145.64,145.64s65.21,145.64,145.64,145.64   c80.44,0,145.64-65.21,145.64-145.64H1228.33z"/><path class="st1" d="M1387,576.75c-0.62-25.07-5.18-45.57-14.3-63.8l-131.35,63.8H1387z"/><path class="st2" d="M1372.7,497c-25.07-45.57-76.95-79.75-129.89-79.75v145.64L1372.7,497z"/></g><line class="st3" x1="1265.84" y1="947" x2="1265.84" y2="1026.17"/><line class="st3" x1="1305.42" y1="986.59" x2="1226.25" y2="986.59"/><circle class="st4" cx="1326.47" cy="1112.61" r="21.35"/><line class="st3" x1="228.67" y1="359" x2="228.67" y2="433.66"/><line class="st3" x1="191.34" y1="396.33" x2="266" y2="396.33"/><circle class="st4" cx="171.94" cy="536.57" r="19.8"/><rect x="671.17" y="898.31" class="st5" width="187.63" height="212.13"/><rect x="639.66" y="892.9" class="st2" width="187.63" height="212.13"/><rect x="564.14" y="1105.03" class="st1" width="397.4" height="42.37"/><rect x="533.28" y="1105.03" class="st0" width="397.4" height="42.37"/><rect x="375.56" y="936.57" class="st1" width="766.65" height="69.49"/><rect x="345.11" y="936.57" class="st0" width="766.65" height="69.49"/><rect x="393.69" y="423.39" class="st5" width="730.91" height="513.19"/><rect x="362.98" y="422.2" class="st2" width="730.91" height="514.37"/><rect x="375.56" y="358.56" class="st1" width="766.65" height="69.49"/><rect x="345.11" y="358.56" class="st0" width="766.65" height="69.49"/><line class="st6" x1="479" y1="704.36" x2="478.56" y2="877.21"/><line class="st6" x1="603.25" y1="641.47" x2="602.8" y2="877.21"/><path class="st7" d="M478.78,704.89c37.98-60.29,99.18-65.57,123.65-65.57c65.74,0,111.81,30.67,132.21,30.67  c62.84,0,102.9-72.36,118.46-90.96c39.64-47.37,85.32-64.52,115.28-64.52"/><line class="st6" x1="735.95" y1="675.64" x2="735.5" y2="877.21"/><line class="st6" x1="859.14" y1="579.93" x2="858.69" y2="877.21"/><line class="st6" x1="978.09" y1="511.3" x2="977.64" y2="877.21"/><circle class="st0" cx="478.78" cy="709.48" r="13.53"/><circle class="st0" cx="602.88" cy="638.9" r="13.53"/><circle class="st0" cx="736.41" cy="672.92" r="13.53"/><circle class="st0" cx="858.49" cy="576.31" r="13.53"/><circle class="st0" cx="978.36" cy="514.01" r="13.53"/><path class="st8" d="M478.78,697.87"/><g><path class="st1" d="M461.11,1149.08l0-385.49l-300.29-1.63l0,332.29c0,30.28,24.55,54.83,54.83,54.83H461.11z"/><path class="st5" d="M516.46,1093.17c-0.1-27.25-13.13-38.44-21.33-38.44H252.35c0,0,23.6,8.1,18.05,43.04   c-6.75,42.49-45.9,51.32-45.9,51.32h236.53C491.64,1149.08,516.56,1120.42,516.46,1093.17z"/><rect x="213.74" y="906.38" class="st9" width="48.65" height="74.04"/><rect x="287.78" y="874.65" class="st9" width="48.65" height="105.77"/><rect x="359.7" y="834.45" class="st9" width="48.65" height="145.96"/></g><line class="st10" x1="190.67" y1="1017.46" x2="425.7" y2="1017.46"/></svg>