<?xml version="1.0" ?><svg viewBox="0 0 64 64" xmlns="http://www.w3.org/2000/svg"><g id="outline"><path d="M13,62a10.992,10.992,0,0,0,8.448-18.034l2.259-2.259-1.414-1.414-2.259,2.259A11,11,0,1,0,13,62Zm0-20a9,9,0,1,1-9,9A9.01,9.01,0,0,1,13,42Z"/><path d="M13,24a10.953,10.953,0,0,0,7.034-2.552l2.259,2.259,1.414-1.414-2.259-2.259A10.994,10.994,0,1,0,13,24ZM13,4a9,9,0,1,1-9,9A9.01,9.01,0,0,1,13,4Z"/><path d="M43,32A11,11,0,1,0,31.037,42.951c.319.031.64.049.963.049s.644-.018.963-.049A11.01,11.01,0,0,0,43,32Zm-6,7.232a7.975,7.975,0,0,1-4.253,1.73C32.5,40.983,32.252,41,32,41s-.5-.017-.747-.038A7.975,7.975,0,0,1,27,39.232v-.066a12.461,12.461,0,0,1,2.943-4.695l.643-.643a1,1,0,0,0,0-1.414,2,2,0,1,1,2.828,0,1,1,0,0,0,0,1.414l.643.643A12.461,12.461,0,0,1,37,39.166Zm-1.529-6.175-.024-.025a4,4,0,1,0-6.894,0l-.024.025A14.453,14.453,0,0,0,25.32,38.01a9,9,0,1,1,13.36,0A14.453,14.453,0,0,0,35.471,33.057Z"/><path d="M13,18a5,5,0,1,0-5-5A5.006,5.006,0,0,0,13,18Zm0-8a3,3,0,1,1-3,3A3,3,0,0,1,13,10Z"/><path d="M9,56h8a1,1,0,0,0,1-1V47a1,1,0,0,0-1-1H9a1,1,0,0,0-1,1v8A1,1,0,0,0,9,56Zm1-8h6v6H10Z"/><path d="M51.868,8.5a1.04,1.04,0,0,0-1.736,0l-4,7A1,1,0,0,0,47,17h8a1,1,0,0,0,.868-1.5ZM48.723,15,51,11.016,53.277,15Z"/><path d="M51,62a11,11,0,1,0-7.034-19.448l-2.259-2.259-1.414,1.414,2.259,2.259A10.992,10.992,0,0,0,51,62Zm0-20a9,9,0,1,1-9,9A9.01,9.01,0,0,1,51,42Z"/><path d="M50.4,56.8a1,1,0,0,0,1.2,0l4-3A1,1,0,0,0,56,53V49a1,1,0,0,0-.4-.8l-4-3a1,1,0,0,0-1.2,0l-4,3a1,1,0,0,0-.4.8v4a1,1,0,0,0,.4.8ZM48,49.5l3-2.25,3,2.25v3l-3,2.25L48,52.5Z"/><rect height="2" width="2" x="10" y="27"/><rect height="2" width="2" x="10" y="31"/><rect height="2" width="2" x="10" y="35"/><rect height="2" width="2" x="55" y="27"/><rect height="2" width="2" x="55" y="31"/><rect height="2" width="2" x="55" y="35"/><rect height="2" width="2" x="27" y="7"/><rect height="2" width="2" x="31" y="7"/><rect height="2" width="2" x="35" y="7"/><rect height="2" width="2" x="27" y="55"/><rect height="2" width="2" x="31" y="55"/><rect height="2" width="2" x="35" y="55"/><path d="M51,2a11,11,0,0,0-9.358,16.78l-.63,4.067A1,1,0,0,0,42,24a.983.983,0,0,0,.209-.022l4.337-.93A10.869,10.869,0,0,0,51,24,11,11,0,0,0,51,2Zm0,20a8.918,8.918,0,0,1-3.9-.9.99.99,0,0,0-.435-.1,1.052,1.052,0,0,0-.209.022l-3.243.7.466-3.006a1,1,0,0,0-.158-.71A9,9,0,1,1,51,22Z"/></g></svg>