<?xml version="1.0" ?><svg xmlns="http://www.w3.org/2000/svg" xmlns:xlink="http://www.w3.org/1999/xlink" version="1.1" id="Layer_1" viewBox="0 0 100 100" style="enable-background:new 0 0 100 100;" xml:space="preserve"><style type="text/css">
	.st0{fill:#EA9E8F;}
	.st1{fill:#F9C2AF;}
	.st2{fill:#11222A;}
	.st3{fill:#0A83F1;}
	.st4{fill:#FFFFFF;}
	.st5{fill:#B6DEFF;}
	.st6{fill:#005EB8;}
	.st7{fill:#F1920C;}
	.st8{fill:#FBB040;}
</style><g><g><rect x="31.2" y="60.3" class="st0" width="10.1" height="11.1"/><path class="st0" d="M52.5,50.6H20c-2.3,0-4.2-1.9-4.2-4.2v0c0-2.3,1.9-4.2,4.2-4.2h32.5c2.3,0,4.2,1.9,4.2,4.2v0    C56.7,48.7,54.8,50.6,52.5,50.6z"/><path class="st1" d="M36.3,64.6L36.3,64.6c-8.5,0-15.5-6.9-15.5-15.5V28.2h31v20.9C51.8,57.7,44.8,64.6,36.3,64.6z"/><path class="st2" d="M27.5,35.2c0,0-1.2,6.8-6.7,6.9c-4.4-5.5-5.4-18.9,3.3-17.1c1.3-5.2,6.3-7.7,15.4-6.2    c9.2,1.5,14.5-0.5,16-2.9c4.2,5.7,3.5,22.6-14.5,22.6C31.5,38.5,27.5,35.2,27.5,35.2z"/><path class="st2" d="M30.8,48.4L30.8,48.4c-0.6,0-1.2-0.5-1.2-1.2v-1.6c0-0.6,0.5-1.2,1.2-1.2h0c0.6,0,1.2,0.5,1.2,1.2v1.6    C31.9,47.8,31.4,48.4,30.8,48.4z"/><path class="st2" d="M41.8,48.4L41.8,48.4c-0.6,0-1.2-0.5-1.2-1.2v-1.6c0-0.6,0.5-1.2,1.2-1.2h0c0.6,0,1.2,0.5,1.2,1.2v1.6    C42.9,47.8,42.4,48.4,41.8,48.4z"/><g><path class="st2" d="M36.3,56.7c-1.7,0-3.3-0.6-4.3-1.6c-0.4-0.4-0.3-1,0-1.3c0.4-0.4,1-0.3,1.3,0c0.6,0.7,1.7,1.1,2.9,1.1     c1.2,0,2.3-0.4,2.9-1.1c0.4-0.4,0.9-0.4,1.3,0c0.4,0.4,0.4,0.9,0,1.3C39.6,56.1,38,56.7,36.3,56.7z"/></g><path class="st3" d="M36.3,71.5l-5-2.9h-7c-3.8,0-6.9,3.1-6.9,6.9v8.8h18.9V71.5z"/><polygon class="st4" points="36.3,71.5 31.2,68.5 28.1,68.5 32.5,84.2 36.3,84.2   "/><polygon class="st5" points="36.3,71.5 30.6,77.6 28.1,68.5 31.2,68.5   "/><polygon class="st6" points="24.2,68.5 23.9,79.2 28.3,80.1 24.3,84.2 32.5,84.2 28.1,68.5   "/><path class="st3" d="M36.3,71.5l5-2.9h7c3.8,0,6.9,3.1,6.9,6.9v8.8H36.3V71.5z"/><polygon class="st4" points="36.3,71.5 41.3,68.5 44.5,68.5 40.1,84.2 36.3,84.2   "/><polygon class="st5" points="36.3,71.5 42,77.6 44.5,68.5 41.3,68.5   "/><polygon class="st6" points="48.3,68.5 48.7,79.2 44.2,80.1 48.3,84.2 40.1,84.2 44.5,68.5   "/><g><polygon class="st7" points="36.3,79.2 36.3,79.2 36.3,79.2 32.5,84.2 36.3,84.2 40.1,84.2    "/><polygon class="st7" points="36.3,79.2 39.5,74.9 36.3,71.5 33,74.9 36.3,79.2 36.3,79.2    "/></g></g><path class="st8" d="M84.2,68.2V51.1c0-2.8-2.3-5-5-5H68c-2.8,0-5,2.3-5,5v2.7h-5.8c-0.5,0-0.8,0.6-0.4,1l6.2,6v7.5   c0,2.8,2.3,5,5,5h11.1C81.9,73.2,84.2,71,84.2,68.2z"/><path class="st7" d="M79.4,66.3H67.7c-0.6,0-1.2-0.5-1.2-1.2l0,0c0-0.6,0.5-1.2,1.2-1.2h11.7c0.6,0,1.2,0.5,1.2,1.2l0,0   C80.6,65.8,80.1,66.3,79.4,66.3z"/><path class="st7" d="M79.4,60.8H67.7c-0.6,0-1.2-0.5-1.2-1.2v0c0-0.6,0.5-1.2,1.2-1.2h11.7c0.6,0,1.2,0.5,1.2,1.2v0   C80.6,60.3,80.1,60.8,79.4,60.8z"/><path class="st7" d="M79.4,55.3H67.7c-0.6,0-1.2-0.5-1.2-1.2v0c0-0.6,0.5-1.2,1.2-1.2h11.7c0.6,0,1.2,0.5,1.2,1.2v0   C80.6,54.8,80.1,55.3,79.4,55.3z"/></g></svg>